<svg version="1.1" id="Layer_1" xmlns="http://www.w3.org/2000/svg" xmlns:xlink="http://www.w3.org/1999/xlink" x="0px" y="0px"
	 width="100%" viewBox="0 0 500 500" enable-background="new 0 0 500 500" xml:space="preserve">
<path fill="#FFFFFF" opacity="1.000000" stroke="none" 
	d="
M243.000000,501.000000 
	C162.000015,501.000000 81.500038,501.000000 1.000043,501.000000 
	C1.000029,334.333405 1.000029,167.666779 1.000014,1.000133 
	C167.666565,1.000088 334.333130,1.000088 500.999756,1.000044 
	C500.999847,167.666519 500.999847,334.333038 500.999939,500.999786 
	C415.166656,501.000000 329.333344,501.000000 243.000000,501.000000 
M355.482117,265.938141 
	C362.606995,248.167694 364.141846,229.568573 361.642151,210.919922 
	C354.152985,155.048447 304.088501,107.913292 237.462387,115.335739 
	C174.219803,122.381256 130.394043,182.047256 140.788376,244.906204 
	C148.397827,290.923767 186.745956,333.293182 242.430893,337.643036 
	C292.386200,341.545288 337.528046,312.235016 355.482117,265.938141 
M214.021744,358.560425 
	C215.639481,355.605591 215.250214,352.609802 212.308212,351.272614 
	C206.245941,348.517303 199.890305,346.407440 193.419296,343.942078 
	C190.709900,350.781921 187.976471,357.310791 185.641205,363.979126 
	C185.291412,364.977936 186.472519,367.389282 187.518021,367.851196 
	C192.489105,370.047424 197.630386,371.874908 202.766510,373.675568 
	C206.358109,374.934723 208.525589,372.928589 209.780746,369.879761 
	C211.213531,366.399414 212.361633,362.801849 214.021744,358.560425 
M309.115051,350.072144 
	C309.471588,348.186646 309.828094,346.301147 310.394592,343.305145 
	C302.828278,346.231201 296.680267,348.462128 290.659485,350.995544 
	C287.369354,352.379913 287.381805,355.586639 288.235352,358.288696 
	C289.571960,362.520081 291.236328,366.712250 293.348816,370.602325 
	C294.183228,372.138824 296.899872,374.020782 298.229370,373.679596 
	C303.446655,372.340820 308.636810,370.559448 313.485291,368.215057 
	C318.338928,365.868195 315.991425,361.772675 314.807953,358.225830 
	C313.774384,355.128143 312.024414,352.894836 308.319977,354.165161 
	C305.082733,355.275208 301.927582,356.624725 298.367340,358.012177 
	C299.173950,359.959778 299.818726,361.516663 300.524017,363.219635 
	C303.044617,362.347687 305.034760,361.483276 307.114502,361.028992 
	C307.913025,360.854584 308.915802,361.615173 309.825500,361.949738 
	C309.334290,362.654083 308.996826,363.708954 308.325775,364.003235 
	C305.086487,365.423920 301.757385,366.639862 298.191040,368.033569 
	C296.576843,363.506683 295.176300,359.578949 293.830902,355.805847 
	C299.127533,353.790436 303.807770,352.009552 309.115051,350.072144 
M156.935135,324.556732 
	C158.476227,326.073853 160.085892,327.528229 161.543594,329.121643 
	C164.263229,332.094482 166.540237,331.630371 168.901810,328.180908 
	C164.618423,323.928375 160.559830,319.523193 156.095703,315.576691 
	C151.934204,311.897675 149.791611,312.340698 145.800781,316.727783 
	C142.011963,320.892792 142.046356,322.851135 145.934464,326.882965 
	C148.559448,329.605011 151.158066,332.352478 153.939133,335.267456 
	C153.292221,335.808258 152.258408,336.825867 152.153824,336.737946 
	C147.514679,332.838623 142.957413,328.841919 138.091354,324.595917 
	C136.888672,325.877289 135.712387,327.130554 134.694595,328.214935 
	C139.327560,333.017578 143.449387,337.574615 147.885239,341.802124 
	C151.687424,345.425720 154.870453,342.849487 157.559830,339.987335 
	C160.145401,337.235718 161.392365,334.422119 157.807022,331.085541 
	C154.757843,328.247925 152.316010,324.757660 149.427826,321.346344 
	C153.649734,318.627594 154.302551,323.055511 156.935135,324.556732 
M243.325333,356.241821 
	C242.327515,356.185547 241.329529,356.132385 240.331924,356.072479 
	C236.379395,355.835175 233.423157,356.972229 232.997955,361.485260 
	C232.295395,368.942078 233.011688,370.437561 238.573151,371.336060 
	C242.606461,371.987640 246.733383,372.059967 250.818558,372.390594 
	C250.908188,372.925110 250.997803,373.459595 251.087433,373.994110 
	C245.670288,378.814209 238.174423,373.594391 232.218887,376.637878 
	C231.630508,379.122314 232.061676,381.008026 235.432083,381.013367 
	C240.927963,381.022095 246.428497,381.254456 251.917923,381.088715 
	C255.802414,380.971436 257.370880,378.067902 257.006592,372.513580 
	C256.757446,368.714691 255.160599,366.554871 250.930298,366.912781 
	C247.952972,367.164673 244.895050,367.275543 241.959213,366.852264 
	C240.560074,366.650574 239.361404,365.058350 238.071915,364.096008 
	C239.400574,363.520081 240.711960,362.499878 242.060989,362.447418 
	C247.133179,362.250122 252.217636,362.368256 257.550720,362.368256 
	C257.550720,360.655060 257.550720,359.075500 257.550720,358.381012 
	C252.815689,357.643799 248.510422,356.973511 243.325333,356.241821 
M344.051971,348.697601 
	C340.059753,342.353485 336.067566,336.009338 331.970398,329.498413 
	C330.104095,330.781952 328.774689,331.696228 327.190674,332.785583 
	C328.799255,335.498230 330.291107,338.013977 331.936768,340.789154 
	C328.339325,343.030884 324.895721,345.176727 321.325623,347.401428 
	C319.414062,344.689026 317.818542,342.425049 316.037170,339.897400 
	C314.398041,341.005432 312.981354,341.963104 311.296417,343.102081 
	C315.861511,350.163940 320.136139,356.776489 324.590485,363.667023 
	C326.369141,362.451141 327.680481,361.554688 328.975555,360.669373 
	C327.467743,357.723206 326.149536,355.147522 324.728363,352.370697 
	C328.348724,350.101532 331.687134,348.009094 335.175171,345.822876 
	C335.833466,346.727753 336.329193,347.363495 336.774506,348.032776 
	C337.325348,348.860657 337.792511,349.746185 338.368958,350.554657 
	C340.421234,353.433258 342.080566,353.100891 344.051971,348.697601 
M182.843689,356.344604 
	C185.619598,351.931152 188.395493,347.517731 191.218689,343.029114 
	C188.240189,340.304657 186.016098,339.978577 183.855988,343.617676 
	C181.357330,347.827087 178.529297,351.840973 176.146759,355.477997 
	C172.289444,352.924530 168.874680,350.664001 165.592590,348.491302 
	C168.832550,343.425110 172.194244,338.168549 175.524689,332.960815 
	C172.390579,330.117157 170.130096,330.246307 168.158600,333.419739 
	C165.794586,337.224915 163.359863,340.986420 160.934479,344.753143 
	C158.629166,348.333435 159.160995,351.336334 162.733704,353.709808 
	C165.498260,355.546387 168.293900,357.336182 171.073654,359.149963 
	C176.722580,362.835785 178.456619,362.496765 182.843689,356.344604 
M284.445099,355.923553 
	C283.429871,355.158325 282.299103,353.618774 281.417725,353.750336 
	C274.359009,354.803772 267.347443,356.173096 259.880646,357.525574 
	C260.344208,359.345886 260.771881,361.025177 261.189362,362.664490 
	C271.074524,361.365967 271.966125,362.362610 271.651764,374.176178 
	C268.942657,374.932495 266.160309,375.709259 262.983185,376.596222 
	C263.316803,377.860657 263.716187,379.374298 264.238007,381.352081 
	C271.019714,380.243988 277.478027,378.926971 284.002502,378.224243 
	C287.710266,377.824921 288.465607,376.403198 286.883911,372.809448 
	C284.337128,373.083649 281.496796,373.389465 277.988739,373.767181 
	C277.331940,369.627441 276.640808,365.271393 276.113647,361.948853 
	C279.528992,359.854126 282.208801,358.210480 284.445099,355.923553 
M351.958893,318.443146 
	C353.043518,317.302063 354.128143,316.160950 355.328644,314.897949 
	C353.710358,313.369476 352.548462,312.272095 351.211609,311.009460 
	C345.505798,317.105438 339.989197,322.999268 334.334686,329.040436 
	C335.175018,329.805511 336.457275,330.972900 337.820068,332.213562 
	C340.142792,329.996429 342.167786,328.063477 344.496460,325.840668 
	C348.794373,330.374634 352.976440,334.786407 357.007751,339.039093 
	C361.759857,336.486816 361.063293,334.004547 358.035736,331.176636 
	C354.686951,328.048706 351.508453,324.738403 348.372986,321.623901 
	C349.492065,320.651428 350.479767,319.793152 351.958893,318.443146 
M219.816605,363.110687 
	C218.826340,363.280579 217.238327,363.154297 216.975571,363.684631 
	C216.492050,364.660492 216.455627,366.951263 216.810989,367.078400 
	C219.969620,368.208588 223.232178,369.121887 226.535233,369.671875 
	C226.902298,369.733032 227.713043,367.129791 228.529633,365.283813 
	C225.338058,364.663910 222.838165,364.178375 219.816605,363.110687 
z"/>
<path fill="#1E99ED" opacity="1.000000" stroke="none" 
	d="
M355.325134,266.294128 
	C337.528046,312.235016 292.386200,341.545288 242.430893,337.643036 
	C186.745956,333.293182 148.397827,290.923767 140.788376,244.906204 
	C130.394043,182.047256 174.219803,122.381256 237.462387,115.335739 
	C304.088501,107.913292 354.152985,155.048447 361.642151,210.919922 
	C364.141846,229.568573 362.606995,248.167694 355.325134,266.294128 
M215.025360,204.022964 
	C215.025360,204.022964 214.975128,203.990448 214.842209,204.683228 
	C214.513794,205.262360 214.185532,205.841583 213.856949,206.420593 
	C205.264984,221.560654 207.426498,238.786179 219.514206,251.503662 
	C230.008179,262.544373 248.540344,265.547852 262.439575,258.460541 
	C277.456604,250.803238 285.313568,234.854065 281.954651,217.937103 
	C281.017242,213.216003 278.865387,208.736038 277.120911,203.714417 
	C278.339325,204.136078 279.252869,204.384247 280.110870,204.759354 
	C292.961487,210.377655 303.053253,219.426361 311.396088,230.469986 
	C315.811096,236.314240 314.992676,243.831146 309.253174,248.942703 
	C293.442688,263.023376 275.353638,272.238373 253.900909,274.043762 
	C227.983856,276.224823 204.142029,269.504700 181.465240,257.531891 
	C179.343002,256.411407 177.051590,255.611359 174.838715,254.662537 
	C212.655884,281.823273 256.621277,283.878479 296.205444,265.011047 
	C302.142670,262.181122 307.910065,258.570831 312.887970,254.307907 
	C315.987305,251.653717 317.425201,250.052399 320.588440,253.830566 
	C323.096680,256.826385 326.571472,258.139771 330.412170,255.840591 
	C334.328064,253.496368 336.140625,249.799850 334.544403,245.638611 
	C332.725037,240.895599 330.631714,235.874405 327.318756,232.171951 
	C321.463501,225.628281 314.970917,219.515579 308.077484,214.067184 
	C289.771271,199.598480 269.137390,191.055893 245.369690,192.369003 
	C215.497833,194.019348 190.525497,207.102859 167.786713,226.606140 
	C167.262405,226.886459 166.738098,227.166763 166.213806,227.447083 
	C166.294342,227.657349 166.374893,227.867630 166.455429,228.077896 
	C167.348969,227.770660 168.242508,227.463409 169.802658,226.974884 
	C179.814407,221.102692 189.676468,214.950439 199.904907,209.483673 
	C204.590149,206.979568 209.995972,205.823669 215.025360,204.022964 
M253.407913,187.846985 
	C278.700592,188.814301 300.557648,198.493866 319.786835,214.453979 
	C326.305389,219.864349 332.059052,226.196945 338.584534,231.597900 
	C340.315643,233.030716 345.193054,233.703140 345.873138,232.753418 
	C347.455536,230.543701 347.882568,227.108154 347.740997,224.220154 
	C347.663086,222.630569 345.747314,220.785934 344.213806,219.669205 
	C334.669006,212.718567 325.336334,205.389984 315.294617,199.227432 
	C297.289703,188.177887 277.619019,181.618683 256.344513,181.044403 
	C231.579910,180.375900 209.002487,187.751892 188.641342,201.518738 
	C179.601456,207.630920 171.396194,214.977493 162.812103,221.763763 
	C163.214600,222.301880 163.617096,222.839996 164.019608,223.378113 
	C165.472031,222.472900 166.992874,221.660202 168.364456,220.645676 
	C173.048309,217.181091 177.521255,213.408310 182.358429,210.178070 
	C203.554611,196.023468 226.331360,186.666702 253.407913,187.846985 
z"/>
<path fill="#2395E3" opacity="1.000000" stroke="none" 
	d="
M213.827591,358.907837 
	C212.361633,362.801849 211.213531,366.399414 209.780746,369.879761 
	C208.525589,372.928589 206.358109,374.934723 202.766510,373.675568 
	C197.630386,371.874908 192.489105,370.047424 187.518021,367.851196 
	C186.472519,367.389282 185.291412,364.977936 185.641205,363.979126 
	C187.976471,357.310791 190.709900,350.781921 193.419296,343.942078 
	C199.890305,346.407440 206.245941,348.517303 212.308212,351.272614 
	C215.250214,352.609802 215.639481,355.605591 213.827591,358.907837 
M192.535965,362.755554 
	C196.052200,364.467896 199.546783,366.229340 203.121979,367.808167 
	C203.439911,367.948547 204.725815,366.940399 204.773895,366.396057 
	C204.840683,365.639923 204.361649,364.359589 203.768478,364.100708 
	C200.615723,362.724976 197.368530,361.555481 194.102249,360.470428 
	C193.853851,360.387909 193.203537,361.515320 192.535965,362.755554 
M202.689194,357.967438 
	C204.272339,358.222260 205.855484,358.477112 208.087173,358.836334 
	C207.921982,357.566193 208.111053,355.765289 207.587158,355.526062 
	C204.463486,354.099945 201.195160,352.972046 197.918640,351.920959 
	C197.473297,351.778076 196.378357,352.508728 196.189545,353.047211 
	C196.007095,353.567505 196.410629,354.643890 196.899277,354.984314 
	C198.482498,356.087158 200.223068,356.964142 202.689194,357.967438 
z"/>
<path fill="#2295E3" opacity="1.000000" stroke="none" 
	d="
M308.801514,350.150421 
	C303.807770,352.009552 299.127533,353.790436 293.830902,355.805847 
	C295.176300,359.578949 296.576843,363.506683 298.191040,368.033569 
	C301.757385,366.639862 305.086487,365.423920 308.325775,364.003235 
	C308.996826,363.708954 309.334290,362.654083 309.825500,361.949738 
	C308.915802,361.615173 307.913025,360.854584 307.114502,361.028992 
	C305.034760,361.483276 303.044617,362.347687 300.524017,363.219635 
	C299.818726,361.516663 299.173950,359.959778 298.367340,358.012177 
	C301.927582,356.624725 305.082733,355.275208 308.319977,354.165161 
	C312.024414,352.894836 313.774384,355.128143 314.807953,358.225830 
	C315.991425,361.772675 318.338928,365.868195 313.485291,368.215057 
	C308.636810,370.559448 303.446655,372.340820 298.229370,373.679596 
	C296.899872,374.020782 294.183228,372.138824 293.348816,370.602325 
	C291.236328,366.712250 289.571960,362.520081 288.235352,358.288696 
	C287.381805,355.586639 287.369354,352.379913 290.659485,350.995544 
	C296.680267,348.462128 302.828278,346.231201 310.394592,343.305145 
	C309.828094,346.301147 309.471588,348.186646 308.801514,350.150421 
z"/>
<path fill="#2694E0" opacity="1.000000" stroke="none" 
	d="
M156.680710,324.306519 
	C154.302551,323.055511 153.649734,318.627594 149.427826,321.346344 
	C152.316010,324.757660 154.757843,328.247925 157.807022,331.085541 
	C161.392365,334.422119 160.145401,337.235718 157.559830,339.987335 
	C154.870453,342.849487 151.687424,345.425720 147.885239,341.802124 
	C143.449387,337.574615 139.327560,333.017578 134.694595,328.214935 
	C135.712387,327.130554 136.888672,325.877289 138.091354,324.595917 
	C142.957413,328.841919 147.514679,332.838623 152.153824,336.737946 
	C152.258408,336.825867 153.292221,335.808258 153.939133,335.267456 
	C151.158066,332.352478 148.559448,329.605011 145.934464,326.882965 
	C142.046356,322.851135 142.011963,320.892792 145.800781,316.727783 
	C149.791611,312.340698 151.934204,311.897675 156.095703,315.576691 
	C160.559830,319.523193 164.618423,323.928375 168.901810,328.180908 
	C166.540237,331.630371 164.263229,332.094482 161.543594,329.121643 
	C160.085892,327.528229 158.476227,326.073853 156.680710,324.306519 
z"/>
<path fill="#2297E8" opacity="1.000000" stroke="none" 
	d="
M243.765244,356.272522 
	C248.510422,356.973511 252.815689,357.643799 257.550720,358.381012 
	C257.550720,359.075500 257.550720,360.655060 257.550720,362.368256 
	C252.217636,362.368256 247.133179,362.250122 242.060989,362.447418 
	C240.711960,362.499878 239.400574,363.520081 238.071930,364.096008 
	C239.361404,365.058350 240.560074,366.650574 241.959213,366.852264 
	C244.895050,367.275543 247.952972,367.164673 250.930298,366.912781 
	C255.160599,366.554871 256.757446,368.714691 257.006592,372.513580 
	C257.370880,378.067902 255.802414,380.971436 251.917923,381.088715 
	C246.428497,381.254456 240.927963,381.022095 235.432083,381.013367 
	C232.061676,381.008026 231.630508,379.122314 232.218887,376.637878 
	C238.174423,373.594391 245.670288,378.814209 251.087433,373.994110 
	C250.997803,373.459595 250.908188,372.925110 250.818558,372.390594 
	C246.733383,372.059967 242.606461,371.987640 238.573151,371.336060 
	C233.011688,370.437561 232.295395,368.942078 232.997955,361.485260 
	C233.423157,356.972229 236.379395,355.835175 240.331924,356.072479 
	C241.329529,356.132385 242.327515,356.185547 243.765244,356.272522 
z"/>
<path fill="#2493DF" opacity="1.000000" stroke="none" 
	d="
M344.053406,349.069000 
	C342.080566,353.100891 340.421234,353.433258 338.368958,350.554657 
	C337.792511,349.746185 337.325348,348.860657 336.774506,348.032776 
	C336.329193,347.363495 335.833466,346.727753 335.175171,345.822876 
	C331.687134,348.009094 328.348724,350.101532 324.728363,352.370697 
	C326.149536,355.147522 327.467743,357.723206 328.975555,360.669373 
	C327.680481,361.554688 326.369141,362.451141 324.590485,363.667023 
	C320.136139,356.776489 315.861511,350.163940 311.296417,343.102081 
	C312.981354,341.963104 314.398041,341.005432 316.037170,339.897400 
	C317.818542,342.425049 319.414062,344.689026 321.325623,347.401428 
	C324.895721,345.176727 328.339325,343.030884 331.936768,340.789154 
	C330.291107,338.013977 328.799255,335.498230 327.190674,332.785583 
	C328.774689,331.696228 330.104095,330.781952 331.970398,329.498413 
	C336.067566,336.009338 340.059753,342.353485 344.053406,349.069000 
z"/>
<path fill="#2593DF" opacity="1.000000" stroke="none" 
	d="
M182.627228,356.636292 
	C178.456619,362.496765 176.722580,362.835785 171.073654,359.149963 
	C168.293900,357.336182 165.498260,355.546387 162.733704,353.709808 
	C159.160995,351.336334 158.629166,348.333435 160.934479,344.753143 
	C163.359863,340.986420 165.794586,337.224915 168.158600,333.419739 
	C170.130096,330.246307 172.390579,330.117157 175.524689,332.960815 
	C172.194244,338.168549 168.832550,343.425110 165.592590,348.491302 
	C168.874680,350.664001 172.289444,352.924530 176.146759,355.477997 
	C178.529297,351.840973 181.357330,347.827087 183.855988,343.617676 
	C186.016098,339.978577 188.240189,340.304657 191.218689,343.029114 
	C188.395493,347.517731 185.619598,351.931152 182.627228,356.636292 
z"/>
<path fill="#2197E9" opacity="1.000000" stroke="none" 
	d="
M284.666870,356.245209 
	C282.208801,358.210480 279.528992,359.854126 276.113647,361.948853 
	C276.640808,365.271393 277.331940,369.627441 277.988739,373.767181 
	C281.496796,373.389465 284.337128,373.083649 286.883911,372.809448 
	C288.465607,376.403198 287.710266,377.824921 284.002502,378.224243 
	C277.478027,378.926971 271.019714,380.243988 264.238007,381.352081 
	C263.716187,379.374298 263.316803,377.860657 262.983185,376.596222 
	C266.160309,375.709259 268.942657,374.932495 271.651764,374.176178 
	C271.966125,362.362610 271.074524,361.365967 261.189362,362.664490 
	C260.771881,361.025177 260.344208,359.345886 259.880646,357.525574 
	C267.347443,356.173096 274.359009,354.803772 281.417725,353.750336 
	C282.299103,353.618774 283.429871,355.158325 284.666870,356.245209 
z"/>
<path fill="#2693DE" opacity="1.000000" stroke="none" 
	d="
M351.713196,318.688995 
	C350.479767,319.793152 349.492065,320.651428 348.372986,321.623901 
	C351.508453,324.738403 354.686951,328.048706 358.035736,331.176636 
	C361.063293,334.004547 361.759857,336.486816 357.007751,339.039093 
	C352.976440,334.786407 348.794373,330.374634 344.496460,325.840668 
	C342.167786,328.063477 340.142792,329.996429 337.820068,332.213562 
	C336.457275,330.972900 335.175018,329.805511 334.334686,329.040436 
	C339.989197,322.999268 345.505798,317.105438 351.211609,311.009460 
	C352.548462,312.272095 353.710358,313.369476 355.328644,314.897949 
	C354.128143,316.160950 353.043518,317.302063 351.713196,318.688995 
z"/>
<path fill="#1F97E9" opacity="1.000000" stroke="none" 
	d="
M220.077438,363.401733 
	C222.838165,364.178375 225.338058,364.663910 228.529633,365.283813 
	C227.713043,367.129791 226.902298,369.733032 226.535233,369.671875 
	C223.232178,369.121887 219.969620,368.208588 216.810989,367.078400 
	C216.455627,366.951263 216.492050,364.660492 216.975571,363.684631 
	C217.238327,363.154297 218.826340,363.280579 220.077438,363.401733 
z"/>
<path fill="#FAFDFF" opacity="1.000000" stroke="none" 
	d="
M168.325500,226.323227 
	C190.525497,207.102859 215.497833,194.019348 245.369690,192.369003 
	C269.137390,191.055893 289.771271,199.598480 308.077484,214.067184 
	C314.970917,219.515579 321.463501,225.628281 327.318756,232.171951 
	C330.631714,235.874405 332.725037,240.895599 334.544403,245.638611 
	C336.140625,249.799850 334.328064,253.496368 330.412170,255.840591 
	C326.571472,258.139771 323.096680,256.826385 320.588440,253.830566 
	C317.425201,250.052399 315.987305,251.653717 312.887970,254.307907 
	C307.910065,258.570831 302.142670,262.181122 296.205444,265.011047 
	C256.621277,283.878479 212.655884,281.823273 174.838715,254.662537 
	C177.051590,255.611359 179.343002,256.411407 181.465240,257.531891 
	C204.142029,269.504700 227.983856,276.224823 253.900909,274.043762 
	C275.353638,272.238373 293.442688,263.023376 309.253174,248.942703 
	C314.992676,243.831146 315.811096,236.314240 311.396088,230.469986 
	C303.053253,219.426361 292.961487,210.377655 280.110870,204.759354 
	C279.252869,204.384247 278.339325,204.136078 277.120911,203.714417 
	C278.865387,208.736038 281.017242,213.216003 281.954651,217.937103 
	C285.313568,234.854065 277.456604,250.803238 262.439575,258.460541 
	C248.540344,265.547852 230.008179,262.544373 219.514206,251.503662 
	C207.426498,238.786179 205.264984,221.560654 213.856949,206.420593 
	C214.185532,205.841583 214.513794,205.262360 215.079254,204.248199 
	C215.251526,203.682236 215.186768,203.551270 215.122009,203.420303 
	C215.106339,203.632324 215.090683,203.844330 215.075012,204.056335 
	C209.995972,205.823669 204.590149,206.979568 199.904907,209.483673 
	C189.676468,214.950439 179.814407,221.102692 169.276962,226.847321 
	C168.609360,226.587585 168.467438,226.455414 168.325500,226.323227 
M259.006439,226.307175 
	C258.693268,219.107422 255.516083,214.325836 249.797562,212.448013 
	C244.271408,210.633347 238.142792,212.555359 234.673126,217.191223 
	C231.376892,221.595367 231.035004,227.418869 233.794769,232.153107 
	C236.627380,237.012314 241.724564,239.578537 247.191101,238.897644 
	C253.158508,238.154343 257.125183,234.190842 259.006439,226.307175 
M225.699310,235.009933 
	C232.920929,232.266159 226.129730,227.538177 228.330719,223.751434 
	C222.878311,223.219452 218.461655,222.788544 212.689713,222.225388 
	C213.784500,228.230270 214.755707,233.557297 215.861496,239.622482 
	C219.643753,237.834396 222.312454,236.572754 225.699310,235.009933 
z"/>
<path fill="#F7FBFE" opacity="1.000000" stroke="none" 
	d="
M252.920258,187.826019 
	C226.331360,186.666702 203.554611,196.023468 182.358429,210.178070 
	C177.521255,213.408310 173.048309,217.181091 168.364456,220.645676 
	C166.992874,221.660202 165.472031,222.472900 164.019608,223.378113 
	C163.617096,222.839996 163.214600,222.301880 162.812103,221.763763 
	C171.396194,214.977493 179.601456,207.630920 188.641342,201.518738 
	C209.002487,187.751892 231.579910,180.375900 256.344513,181.044403 
	C277.619019,181.618683 297.289703,188.177887 315.294617,199.227432 
	C325.336334,205.389984 334.669006,212.718567 344.213806,219.669205 
	C345.747314,220.785934 347.663086,222.630569 347.740997,224.220154 
	C347.882568,227.108154 347.455536,230.543701 345.873138,232.753418 
	C345.193054,233.703140 340.315643,233.030716 338.584534,231.597900 
	C332.059052,226.196945 326.305389,219.864349 319.786835,214.453979 
	C300.557648,198.493866 278.700592,188.814301 252.920258,187.826019 
z"/>
<path fill="#FAFDFF" opacity="1.000000" stroke="none" 
	d="
M168.943649,226.937958 
	C168.242508,227.463409 167.348969,227.770660 166.455429,228.077896 
	C166.374893,227.867630 166.294342,227.657349 166.213806,227.447083 
	C166.738098,227.166763 167.262405,226.886459 168.056107,226.464691 
	C168.467438,226.455414 168.609360,226.587585 168.943649,226.937958 
z"/>
<path fill="#EFF4F7" opacity="1.000000" stroke="none" 
	d="
M192.638000,362.417908 
	C193.203537,361.515320 193.853851,360.387909 194.102249,360.470428 
	C197.368530,361.555481 200.615723,362.724976 203.768478,364.100708 
	C204.361649,364.359589 204.840683,365.639923 204.773895,366.396057 
	C204.725815,366.940399 203.439911,367.948547 203.121979,367.808167 
	C199.546783,366.229340 196.052200,364.467896 192.638000,362.417908 
z"/>
<path fill="#F2F5F8" opacity="1.000000" stroke="none" 
	d="
M202.296112,357.947754 
	C200.223068,356.964142 198.482498,356.087158 196.899277,354.984314 
	C196.410629,354.643890 196.007095,353.567505 196.189545,353.047211 
	C196.378357,352.508728 197.473297,351.778076 197.918640,351.920959 
	C201.195160,352.972046 204.463486,354.099945 207.587158,355.526062 
	C208.111053,355.765289 207.921982,357.566193 208.087173,358.836334 
	C205.855484,358.477112 204.272339,358.222260 202.296112,357.947754 
z"/>
<path fill="#209AED" opacity="1.000000" stroke="none" 
	d="
M258.986694,226.719223 
	C257.125183,234.190842 253.158508,238.154343 247.191101,238.897644 
	C241.724564,239.578537 236.627380,237.012314 233.794769,232.153107 
	C231.035004,227.418869 231.376892,221.595367 234.673126,217.191223 
	C238.142792,212.555359 244.271408,210.633347 249.797562,212.448013 
	C255.516083,214.325836 258.693268,219.107422 258.986694,226.719223 
z"/>
<path fill="#259CEE" opacity="1.000000" stroke="none" 
	d="
M225.340240,235.160522 
	C222.312454,236.572754 219.643753,237.834396 215.861496,239.622482 
	C214.755707,233.557297 213.784500,228.230270 212.689713,222.225388 
	C218.461655,222.788544 222.878311,223.219452 228.330719,223.751434 
	C226.129730,227.538177 232.920929,232.266159 225.340240,235.160522 
z"/>
<path fill="#1E99ED" opacity="1.000000" stroke="none" 
	d="
M215.050186,204.039658 
	C215.090683,203.844330 215.106339,203.632324 215.122009,203.420303 
	C215.186768,203.551270 215.251526,203.682236 215.145721,203.901825 
	C214.975128,203.990448 215.025360,204.022964 215.050186,204.039658 
z"/>
</svg>